<?xml version="1.0" standalone="no"?>
<!DOCTYPE svg PUBLIC "-//W3C//DTD SVG 20010904//EN"
 "http://www.w3.org/TR/2001/REC-SVG-20010904/DTD/svg10.dtd">
<svg version="1.0" xmlns="http://www.w3.org/2000/svg"
 width="341.000000pt" height="155.000000pt" viewBox="0 0 341.000000 155.000000"
 preserveAspectRatio="xMidYMid meet">

<g transform="translate(0.000000,155.000000) scale(0.100000,-0.100000)"
fill="#000000" stroke="none">
<path d="M853 1543 c472 -2 1242 -2 1710 0 469 1 83 2 -858 2 -941 0 -1324 -1
-852 -2z"/>
<path d="M80 1404 c0 -6 18 -14 40 -18 56 -9 86 -25 99 -53 7 -16 11 -127 11
-328 0 -298 0 -305 20 -305 20 0 20 7 20 297 0 186 4 293 9 288 8 -8 231 -570
231 -581 0 -2 38 -4 85 -4 47 0 85 2 85 4 0 3 -141 380 -244 651 l-23 60 -167
0 c-119 1 -166 -3 -166 -11z"/>
<path d="M1319 1413 l-96 -4 -129 -346 c-71 -190 -130 -350 -132 -354 -2 -5 5
-9 16 -9 16 0 37 48 127 290 59 160 112 290 116 290 5 0 9 -130 9 -290 l0
-290 80 0 80 0 1 273 c0 149 4 294 8 321 10 61 33 81 100 90 38 5 49 10 45 21
-5 11 -21 14 -68 13 -33 -1 -104 -4 -157 -5z"/>
<path d="M1620 1407 c0 -7 17 -21 37 -32 21 -11 47 -35 60 -53 12 -18 66 -166
120 -328 l98 -294 87 0 c49 0 88 3 88 7 0 3 -43 136 -95 294 -52 158 -95 301
-95 317 0 33 23 57 63 67 15 4 27 13 27 20 0 11 -40 14 -195 14 -143 0 -195
-4 -195 -12z"/>
<path d="M2290 1404 c0 -7 13 -20 29 -28 15 -8 35 -26 44 -39 18 -28 77 -192
77 -215 0 -9 -29 -108 -64 -220 -58 -185 -62 -203 -44 -200 17 2 29 32 72 170
28 92 55 170 58 173 3 4 32 -73 64 -169 l59 -176 88 0 c80 0 88 2 83 18 -88
268 -178 555 -182 583 -8 48 18 75 80 84 28 5 46 12 46 20 0 11 -42 13 -205
13 -165 0 -205 -3 -205 -14z"/>
<path d="M2970 1407 c0 -7 24 -18 53 -25 124 -29 127 -91 17 -432 -40 -124
-75 -231 -78 -238 -3 -10 2 -13 19 -10 22 3 31 26 110 278 47 151 93 289 101
305 18 34 62 77 96 94 12 6 22 18 22 25 0 11 -34 14 -170 15 -129 0 -170 -2
-170 -12z"/>
<path d="M616 479 c-4 -39 -10 -77 -13 -85 -3 -8 -1 -14 5 -14 5 0 13 29 17
65 3 36 10 63 15 60 4 -2 18 -32 30 -65 12 -33 26 -60 29 -60 4 0 18 29 30 65
13 36 27 63 31 60 4 -2 10 -32 14 -65 4 -33 12 -60 18 -60 6 0 8 10 5 23 -3
12 -9 50 -13 85 -4 36 -11 62 -18 62 -6 0 -22 -31 -35 -70 -13 -38 -27 -67
-32 -65 -4 3 -17 34 -29 70 -29 86 -45 84 -54 -6z"/>
<path d="M921 469 c-18 -45 -30 -84 -27 -86 3 -3 10 6 15 21 9 22 16 26 51 26
33 0 42 -4 52 -25 21 -46 28 -26 8 25 -39 99 -49 120 -58 120 -5 0 -24 -36
-41 -81z m58 20 c16 -46 14 -49 -19 -49 -16 0 -30 4 -30 9 0 18 22 71 30 71 4
0 13 -14 19 -31z"/>
<path d="M1132 463 c2 -83 2 -84 5 -20 2 37 7 67 12 67 4 0 25 -25 45 -55 63
-91 66 -90 66 9 0 98 -17 118 -22 25 l-3 -61 -44 61 c-25 33 -48 61 -53 61 -4
0 -7 -39 -6 -87z"/>
<path d="M1366 534 c-26 -26 -18 -43 34 -69 44 -22 51 -34 38 -58 -8 -15 -7
-18 4 -15 7 3 14 16 16 30 3 21 -4 30 -40 50 -49 27 -59 61 -19 66 13 2 28 -1
34 -7 17 -17 31 -13 17 4 -16 20 -64 19 -84 -1z"/>
<path d="M1699 469 c15 -46 32 -84 38 -86 5 -2 18 25 28 59 9 35 20 67 23 73
3 5 15 -21 26 -59 12 -37 26 -68 31 -68 9 0 63 131 64 156 2 24 -18 -13 -34
-64 -26 -80 -27 -81 -50 -5 -11 37 -25 70 -30 72 -6 2 -16 -16 -22 -39 -6 -24
-17 -56 -24 -73 l-12 -30 -21 69 c-12 38 -27 71 -34 74 -6 2 0 -31 17 -79z"/>
<path d="M2013 524 c-21 -22 -25 -32 -20 -66 6 -48 21 -64 62 -73 l30 -6 -31
14 c-34 16 -44 34 -44 76 0 40 26 71 61 71 25 0 33 -6 45 -36 16 -38 12 -68
-14 -96 -9 -11 -10 -18 -4 -18 20 0 42 44 42 82 0 74 -74 105 -127 52z"/>
<path d="M2240 466 c0 -51 4 -86 10 -86 6 0 10 16 10 35 0 47 27 47 58 0 12
-19 27 -35 32 -35 6 0 0 16 -14 36 l-25 37 22 17 c18 15 20 22 12 46 -9 26
-16 29 -58 32 l-47 3 0 -85z m88 46 c5 -30 -14 -52 -44 -52 -21 0 -24 5 -24
41 0 39 1 40 33 37 25 -2 33 -8 35 -26z"/>
<path d="M2450 466 l0 -86 58 2 c56 2 56 2 10 5 -48 4 -48 4 -49 41 -1 20 -1
53 0 73 2 20 -2 40 -8 44 -8 4 -11 -21 -11 -79z"/>
<path d="M2650 464 l0 -87 51 5 c60 6 79 22 86 74 4 30 0 45 -17 67 -18 23
-29 27 -71 27 l-49 0 0 -86z m102 59 c25 -23 24 -87 -2 -113 -11 -11 -33 -20
-50 -20 l-30 0 0 75 0 75 32 0 c17 0 40 -7 50 -17z"/>
<path d="M1355 410 c-7 -11 42 -33 59 -26 6 2 3 5 -6 5 -9 1 -23 8 -32 16 -9
9 -17 11 -21 5z"/>
<path d="M212 194 c-13 -27 -66 -54 -107 -54 -16 0 -25 -6 -25 -15 0 -13 27
-15 180 -15 146 0 180 3 180 14 0 9 -18 16 -50 20 -39 5 -58 14 -85 41 -42 42
-77 46 -93 9z"/>
<path d="M702 212 c2 -4 12 -31 22 -60 27 -70 45 -68 72 8 l21 60 -59 0 c-33
0 -58 -4 -56 -8z"/>
<path d="M1208 191 c-16 -28 -65 -51 -110 -51 -10 0 -18 -7 -18 -15 0 -13 33
-15 236 -15 178 0 235 3 232 12 -2 6 -27 17 -56 23 -56 13 -78 27 -87 56 -6
17 -16 19 -93 19 -86 0 -87 -1 -104 -29z"/>
<path d="M2106 198 c34 -111 53 -125 73 -56 7 24 15 51 17 61 5 15 -2 17 -46
17 -49 0 -51 -1 -44 -22z"/>
<path d="M2756 198 c36 -115 52 -124 77 -45 9 30 17 57 17 60 0 4 -23 7 -51 7
-48 0 -50 -1 -43 -22z"/>
</g>
</svg>
